<?xml version="1.0" standalone="no"?>
<!DOCTYPE svg PUBLIC "-//W3C//DTD SVG 20010904//EN"
 "http://www.w3.org/TR/2001/REC-SVG-20010904/DTD/svg10.dtd">
<svg version="1.0" xmlns="http://www.w3.org/2000/svg"
 width="1142.000000pt" height="1280.000000pt" viewBox="0 0 1142.000000 1280.000000"
 preserveAspectRatio="xMidYMid meet">
<metadata>
Created by potrace 1.15, written by Peter Selinger 2001-2017
</metadata>
<g transform="translate(0.000000,1280.000000) scale(0.100000,-0.100000)"
fill="#000000" stroke="none">
<path d="M5357 12789 c-572 -50 -1122 -270 -1579 -630 -57 -45 -173 -152 -258
-238 -406 -408 -674 -902 -794 -1461 -21 -98 -34 -188 -62 -447 -6 -48 7 -44
-179 -63 -592 -60 -1182 -338 -1622 -764 -161 -155 -269 -284 -394 -470 -493
-735 -604 -1675 -297 -2516 201 -552 585 -1037 1088 -1372 206 -137 486 -271
717 -341 46 -14 85 -22 88 -18 2 4 134 383 293 842 159 459 301 860 315 892
48 106 136 229 241 333 147 147 287 235 480 303 170 60 186 61 985 61 669 0
733 -2 816 -19 343 -71 602 -320 669 -644 9 -42 16 -93 16 -113 0 -21 2 -35 5
-33 2 3 104 293 225 645 122 351 239 675 261 720 124 249 368 456 646 550 152
51 184 53 813 54 655 0 688 -3 847 -72 384 -166 576 -583 452 -985 -28 -91
-69 -170 -265 -514 -91 -161 -168 -297 -170 -304 -4 -10 42 -14 198 -18 160
-4 218 -9 273 -25 245 -69 407 -197 512 -406 101 -201 101 -451 0 -668 -49
-105 -109 -183 -345 -453 -116 -132 -209 -241 -208 -243 7 -6 182 20 301 45
851 176 1570 811 1858 1639 87 250 126 474 134 764 8 323 -26 557 -128 865
-115 349 -309 669 -569 938 -423 440 -950 699 -1559 768 -101 11 -492 7 -587
-7 l-40 -6 14 89 c23 137 23 632 -1 783 -53 338 -136 607 -277 895 -381 778
-1088 1351 -1931 1565 -302 77 -674 107 -982 79z"/>
<path d="M7228 7381 c-103 -33 -219 -126 -263 -211 -10 -18 -184 -513 -387
-1099 -322 -928 -370 -1074 -371 -1126 -1 -90 35 -144 118 -182 36 -16 85 -18
495 -23 398 -4 459 -7 485 -22 85 -46 115 -130 81 -225 -8 -22 -202 -469 -432
-994 -229 -525 -423 -974 -430 -998 -22 -69 -5 -79 51 -30 58 51 2478 2828
2499 2866 34 66 20 123 -39 156 -14 9 -196 13 -635 17 -581 5 -617 6 -654 24
-77 38 -99 133 -53 225 13 25 197 350 407 721 211 371 390 694 398 717 27 82
-16 167 -96 191 -28 9 -194 12 -578 11 -494 0 -544 -2 -596 -18z"/>
<path d="M3630 6221 c-140 -44 -283 -156 -342 -266 -14 -28 -234 -651 -489
-1385 -493 -1422 -490 -1412 -459 -1505 17 -51 76 -114 130 -139 44 -20 63
-21 615 -26 626 -5 611 -4 678 -68 53 -50 70 -97 64 -176 -4 -67 -33 -135
-551 -1319 -325 -742 -549 -1266 -553 -1293 -5 -40 -4 -44 15 -44 11 0 43 21
71 48 27 26 739 837 1582 1802 1065 1220 1539 1770 1555 1805 29 61 30 90 4
132 -43 71 1 67 -855 73 -593 4 -777 8 -799 18 -90 40 -131 104 -123 192 2 31
16 78 30 106 14 27 246 438 516 913 360 635 494 879 502 918 15 65 2 118 -42
167 -58 67 -46 66 -808 65 -628 0 -691 -2 -741 -18z"/>
</g>
</svg>
